<?xml version="1.0" encoding="utf-8"?>
<!-- Generator: Adobe Illustrator 15.0.0, SVG Export Plug-In . SVG Version: 6.00 Build 0)  -->
<!DOCTYPE svg PUBLIC "-//W3C//DTD SVG 1.1//EN" "http://www.w3.org/Graphics/SVG/1.1/DTD/svg11.dtd">
<svg version="1.1" id="Calque_1" xmlns="http://www.w3.org/2000/svg" xmlns:xlink="http://www.w3.org/1999/xlink" x="0px" y="0px"
	 width="454.477px" height="394.893px" viewBox="0 0 454.477 394.893" enable-background="new 0 0 454.477 394.893"
	 xml:space="preserve">
<g id="Calque_2">
	<g>
		<g>
			<g>
				<path fill="#2B615A" d="M135.73,142.021c-7.821-14.747-12.938-31.145-14.68-48.541c-12.753,19.618-20.166,43.028-20.166,68.171
					c0,20.701,5.029,40.226,13.921,57.429c1.677-21.195,8.348-40.983,18.84-58.188C133.699,154.42,134.414,148.109,135.73,142.021z"
					/>
			</g>
			<path fill="#59B251" d="M213.175,286.236c-18.032-13.729-32.99-31.28-43.672-51.448c-21.82-16.923-35.868-43.388-35.868-73.138
				c0-0.254,0.009-0.506,0.011-0.76c-10.493,17.204-17.164,36.992-18.84,58.188C133.748,255.723,170.244,281.823,213.175,286.236z"
				/>
			<path fill="#59B251" d="M169.503,88.516c10.682-20.17,25.64-37.721,43.672-51.45c-38.605,3.97-72.01,25.475-92.124,56.414
				c1.741,17.396,6.859,33.794,14.68,48.541C140.403,120.406,152.624,101.604,169.503,88.516z"/>
			<path fill="#8DDE69" d="M226.135,254.15c-21.336,0-40.982-7.229-56.632-19.362c10.682,20.168,25.64,37.721,43.672,51.448
				c4.261,0.438,8.584,0.664,12.96,0.664c24.75,0,47.822-7.182,67.25-19.569v-42.175C276.521,243.008,252.631,254.15,226.135,254.15
				z"/>
			<path fill="#8DDE69" d="M226.135,36.401c-4.376,0-8.7,0.227-12.96,0.664c-18.032,13.729-32.99,31.28-43.672,51.45
				c15.649-12.137,35.295-19.365,56.632-19.365c26.496,0,50.387,11.145,67.25,28.995V55.972
				C273.957,43.582,250.885,36.401,226.135,36.401z"/>
			<path fill="#8DDE69" d="M301.885,61.91v46.668v106.146v46.668c3.3-2.51,6.468-5.182,9.5-8v-55.811V125.72V69.91
				C308.354,67.092,305.185,64.42,301.885,61.91z"/>
		</g>
	</g>
</g>
<g id="Calque_4">
	<path fill="#8BDF69" d="M283.959,149.45c-0.034,0.004-30.268,3.546-53.768-9.508c-25-13.886-38.807-39.376-38.807-39.376
		s6.333,88.999,102,82.333C291.5,169.863,288.225,158.812,283.959,149.45z"/>
	<path fill="#59B051" d="M239.719,130.901c-30-6.001-48.333-30.334-48.333-30.334s13.806,25.49,38.806,39.376
		c23.502,13.054,53.734,9.512,53.769,9.508c-2.989-6.563-6.47-12.283-10.295-17.28C266.387,133.54,255.926,134.142,239.719,130.901z
		"/>
	<path fill="#29625B" d="M191.385,100.567c0,0,18.333,24.333,48.333,30.334c16.208,3.24,26.668,2.64,33.945,1.27
		C248.199,98.913,207.263,98.125,191.385,100.567z"/>
</g>
<g id="Calque_3">
	<path fill="#8BDF69" d="M366.052,99.724c0,0-25.667-4.156-45.5,14.677c-16.35,15.526-17.833,34.5-17.833,34.5
		s14.199,1.828,28.616-3.005c14.417-4.834,24.884-17.328,29.884-28.495S366.052,99.724,366.052,99.724z"/>
</g>
</svg>
